# xmcd
#
# Track frame offsets: 
#        183
#        11128
#        26593
#        43935
#        55153
#        75635
#        87885
#        103198
#        123195
#        139110
#
# Disc length: 2156 seconds
#
# Revision: 3
# Processed by: cddbd v1.5.2PL0 Copyright (c) Steve Scherf et al.
# Submitted via: ExactAudioCopy v1.1
#
DISCID=7e086a0a
DTITLE=Hale, Terry Lee - Oh What A World
DYEAR=1991
DGENRE=Singer/Songwriter
TTITLE0=Just Ask Me
TTITLE1=Beautiful Lie
TTITLE2=Where The Weeds Grow
TTITLE3=Random Kiss
TTITLE4=The Boys Are Waiting
TTITLE5=First Get Over Falling
TTITLE6=Who Is He
TTITLE7=Call Me Ann
TTITLE8=Digging Up Crud
TTITLE9=Oh What A World
EXTD=NORMAL 152 CD YEAR: 1991
EXTT0=
EXTT1=
EXTT2=
EXTT3=
EXTT4=
EXTT5=
EXTT6=
EXTT7=
EXTT8=
EXTT9=
PLAYORDER=
